<svg width="353" height="382" viewBox="0 0 353 382" fill="none" xmlns="http://www.w3.org/2000/svg">
<path d="M15.576 208.367C15.6494 208.367 15.6956 208.367 15.7113 208.364H24.4805V207.068H15.6794C15.4756 207.075 11.3183 207.193 7.48963 202.533C1.78156 195.589 -2.90611 178.398 7.17823 135.937C20.738 78.8414 9.42851 28.4011 3.93662 9.36454C3.66602 8.42272 3.61759 7.43072 3.79518 6.46691C3.97277 5.50311 4.37151 4.59392 4.95989 3.81118C5.54826 3.02844 6.31016 2.3936 7.18536 1.95682C8.06057 1.52005 9.02509 1.2933 10.0027 1.29451H140.963C141.958 1.29602 142.94 1.53289 143.827 1.9859C144.714 2.43892 145.482 3.09531 146.069 3.90178C148.396 7.11003 151.588 13.2735 153.586 24.4177L154.858 24.1885C152.817 12.8019 149.521 6.4575 147.115 3.13755C146.408 2.16608 145.482 1.37547 144.413 0.829896C143.344 0.284322 142.162 -0.000839623 140.962 -0.0024376H10.0013C8.82307 -0.00361845 7.66068 0.269937 6.60603 0.79661C5.55138 1.32328 4.63337 2.08864 3.92453 3.0322C3.2157 3.97575 2.73546 5.07165 2.52179 6.23328C2.30812 7.39492 2.36687 8.59045 2.69339 9.72541C8.15671 28.6627 19.4062 78.8419 5.91882 135.638C-4.30741 178.694 0.608813 196.261 6.53352 203.411C10.4413 208.128 14.7471 208.367 15.576 208.367Z" fill="#E6E6E6"/>
<path d="M39.1723 232.023C39.2456 232.023 39.2918 232.023 39.3075 232.02H48.0767V230.724H39.2761C39.0713 230.73 34.915 230.849 31.0863 226.189C25.3782 219.245 20.6906 202.054 30.7749 159.593C44.3347 102.497 33.0252 52.057 27.5333 33.0204C27.2627 32.0786 27.2143 31.0866 27.3919 30.1228C27.5694 29.159 27.9682 28.2498 28.5566 27.467C29.1449 26.6843 29.9068 26.0494 30.782 25.6127C31.6572 25.1759 32.6218 24.9492 33.5994 24.9504H164.559C165.555 24.9516 166.536 25.1883 167.424 25.641C168.311 26.0938 169.079 26.7499 169.666 27.5562C171.993 30.7644 175.185 36.9279 177.183 48.0721L178.456 47.843C176.415 36.4563 173.118 30.1119 170.712 26.792C170.005 25.8205 169.08 25.0299 168.011 24.4843C166.942 23.9387 165.759 23.6536 164.56 23.652H33.598C32.4196 23.6507 31.257 23.9243 30.2022 24.4511C29.1475 24.9778 28.2293 25.7433 27.5205 26.687C26.8116 27.6308 26.3314 28.7269 26.1179 29.8887C25.9043 31.0505 25.9633 32.2462 26.2901 33.3813C31.7534 52.3186 43.0029 102.498 29.5155 159.293C19.2893 202.35 24.2055 219.916 30.1302 227.067C34.0379 231.784 38.3438 232.023 39.1723 232.023Z" fill="#CCCCCC"/>
<path d="M62.7681 255.679C62.8414 255.679 62.8876 255.679 62.9033 255.676H191.844C193.086 255.678 194.309 255.374 195.406 254.792C196.503 254.21 197.442 253.367 198.139 252.338C198.836 251.308 199.271 250.123 199.405 248.885C199.539 247.648 199.369 246.397 198.909 245.241C194.231 233.522 187.932 205.408 198.307 148.777C210.559 81.9054 199.59 57.7378 194.307 50.4507C193.6 49.4792 192.675 48.6886 191.605 48.143C190.536 47.5974 189.354 47.3123 188.155 47.3107H57.1938C56.0157 47.3095 54.8534 47.5831 53.7989 48.1097C52.7443 48.6363 51.8264 49.4016 51.1175 50.345C50.4087 51.2885 49.9285 52.3842 49.7147 53.5457C49.501 54.7072 49.5596 55.9027 49.8859 57.0376C55.3492 75.9749 66.5987 126.154 53.1113 182.95C42.8851 226.006 47.8009 243.573 53.7261 250.723C57.6338 255.441 61.9396 255.679 62.7681 255.679ZM188.154 48.6062C189.15 48.6076 190.132 48.8445 191.019 49.2976C191.907 49.7507 192.675 50.4072 193.262 51.2139C198.448 58.3655 209.198 82.1656 197.037 148.545C187.125 202.645 191.932 231.252 197.711 245.725C198.1 246.679 198.246 247.716 198.136 248.742C198.026 249.768 197.662 250.75 197.079 251.599C196.5 252.457 195.721 253.159 194.809 253.645C193.896 254.13 192.879 254.383 191.846 254.383H62.8719C62.6681 254.393 58.5109 254.508 54.6822 249.848C48.9741 242.903 44.2864 225.713 54.3708 183.251C67.9305 126.156 56.621 75.7157 51.1291 56.6791C50.8585 55.7373 50.8101 54.7453 50.9877 53.7815C51.1653 52.8177 51.564 51.9085 52.1524 51.1257C52.7408 50.343 53.5027 49.7081 54.3779 49.2714C55.2531 48.8346 56.2176 48.6078 57.1953 48.6091L188.154 48.6062Z" fill="#3F3D56"/>
<path d="M175.324 105.641H72.5332C71.1616 105.641 69.8461 105.095 68.8761 104.122C67.9062 103.15 67.3613 101.831 67.3613 100.456C67.3613 99.081 67.9062 97.7622 68.8761 96.7899C69.8461 95.8175 71.1616 95.2712 72.5332 95.2712H175.324C176.695 95.2712 178.011 95.8175 178.981 96.7899C179.951 97.7622 180.496 99.081 180.496 100.456C180.496 101.831 179.951 103.15 178.981 104.122C178.011 105.095 176.695 105.641 175.324 105.641Z" fill="#6C63FF"/>
<path d="M175.324 127.677H72.5332C71.1616 127.677 69.8461 127.13 68.8761 126.158C67.9062 125.186 67.3613 123.867 67.3613 122.492C67.3613 121.117 67.9062 119.798 68.8761 118.826C69.8461 117.853 71.1616 117.307 72.5332 117.307H175.324C176.695 117.307 178.011 117.853 178.981 118.826C179.951 119.798 180.496 121.117 180.496 122.492C180.496 123.867 179.951 125.186 178.981 126.158C178.011 127.13 176.695 127.677 175.324 127.677Z" fill="#CCCCCC"/>
<path d="M175.324 149.713H72.5332C71.1616 149.713 69.8461 149.166 68.8761 148.194C67.9062 147.222 67.3613 145.903 67.3613 144.528C67.3613 143.152 67.9062 141.834 68.8761 140.861C69.8461 139.889 71.1616 139.343 72.5332 139.343H175.324C176.695 139.343 178.011 139.889 178.981 140.861C179.951 141.834 180.496 143.152 180.496 144.528C180.496 145.903 179.951 147.222 178.981 148.194C178.011 149.166 176.695 149.713 175.324 149.713Z" fill="#CCCCCC"/>
<path d="M183.08 171.748H80.2901C78.9184 171.748 77.6029 171.202 76.633 170.229C75.6631 169.257 75.1182 167.938 75.1182 166.563C75.1182 165.188 75.6631 163.869 76.633 162.897C77.6029 161.924 78.9184 161.378 80.2901 161.378H183.08C184.452 161.378 185.768 161.924 186.738 162.897C187.707 163.869 188.252 165.188 188.252 166.563C188.252 167.938 187.707 169.257 186.738 170.229C185.768 171.202 184.452 171.748 183.08 171.748Z" fill="#CCCCCC"/>
<path d="M183.08 193.784H80.2901C79.6109 193.784 78.9384 193.649 78.3109 193.389C77.6834 193.128 77.1132 192.746 76.633 192.265C76.1527 191.783 75.7718 191.212 75.5118 190.583C75.2519 189.954 75.1182 189.28 75.1182 188.599C75.1182 187.918 75.2519 187.244 75.5118 186.614C75.7718 185.985 76.1527 185.414 76.633 184.932C77.1132 184.451 77.6834 184.069 78.3109 183.808C78.9384 183.548 79.6109 183.414 80.2901 183.414H183.08C183.76 183.414 184.432 183.548 185.06 183.808C185.687 184.069 186.257 184.451 186.738 184.932C187.218 185.414 187.599 185.985 187.859 186.614C188.119 187.244 188.252 187.918 188.252 188.599C188.252 189.28 188.119 189.954 187.859 190.583C187.599 191.212 187.218 191.783 186.738 192.265C186.257 192.746 185.687 193.128 185.06 193.389C184.432 193.649 183.76 193.784 183.08 193.784Z" fill="#CCCCCC"/>
<path d="M121.019 83.6054H72.5332C71.1616 83.6054 69.8461 83.0591 68.8761 82.0867C67.9062 81.1143 67.3613 79.7955 67.3613 78.4204C67.3613 77.0453 67.9062 75.7265 68.8761 74.7541C69.8461 73.7817 71.1616 73.2355 72.5332 73.2355H121.019C122.391 73.2355 123.707 73.7817 124.677 74.7541C125.646 75.7265 126.191 77.0453 126.191 78.4204C126.191 79.7955 125.646 81.1143 124.677 82.0867C123.707 83.0591 122.391 83.6054 121.019 83.6054Z" fill="#6C63FF"/>
<path d="M114.758 229.314C115.802 224.884 120.704 223.432 124.713 223.594C127.245 223.765 129.757 224.164 132.219 224.785C134.794 225.363 137.345 226.047 139.885 226.772C144.539 228.103 149.144 229.712 153.874 230.752C157.813 231.618 162.092 232.126 166.019 230.93C169.794 229.781 172.996 226.96 174.024 223.059C174.992 219.384 173.663 215.365 170.11 213.685C166.872 212.153 162.777 212.932 161.171 216.396C159.362 220.302 161.171 224.562 164.037 227.388C165.666 228.923 167.451 230.283 169.363 231.446C171.302 232.771 173.461 233.741 175.739 234.31C179.479 235.111 183.934 233.931 185.862 230.348C186.291 229.537 186.549 228.647 186.62 227.732C186.734 226.486 184.794 226.494 184.681 227.732C184.354 231.298 180.187 232.969 177.071 232.578C174.968 232.228 172.96 231.447 171.172 230.282C169.447 229.274 167.812 228.117 166.286 226.826C163.643 224.534 161.166 220.76 162.941 217.183C164.386 214.271 168.154 214.299 170.445 216.178C173.22 218.453 172.725 222.583 170.895 225.285C168.868 228.277 165.195 229.533 161.731 229.666C157.97 229.813 154.236 228.947 150.64 227.923C146.171 226.651 141.747 225.227 137.256 224.029C134.707 223.35 132.138 222.736 129.543 222.258C127.089 221.716 124.568 221.541 122.063 221.739C118.016 222.208 113.886 224.57 112.889 228.8C112.603 230.017 114.472 230.536 114.759 229.317L114.758 229.314Z" fill="#3F3D56"/>
<path d="M186.018 229.773C185.772 229.568 185.593 229.295 185.502 228.988C185.412 228.682 185.413 228.355 185.508 228.049C185.602 227.744 185.784 227.473 186.031 227.271C186.279 227.069 186.58 226.945 186.898 226.915C190.424 226.573 193.982 226.939 197.366 227.99L231.834 238.662C232.28 238.8 232.694 239.025 233.054 239.324C233.413 239.622 233.71 239.989 233.928 240.403C234.147 240.817 234.281 241.27 234.325 241.736C234.368 242.202 234.319 242.672 234.182 243.119C234.044 243.567 233.82 243.982 233.522 244.343C233.224 244.703 232.858 245.001 232.445 245.22C232.032 245.438 231.58 245.573 231.115 245.617C230.65 245.66 230.181 245.612 229.735 245.474L195.268 234.804C191.882 233.759 188.738 232.048 186.018 229.773Z" fill="#3F3D56"/>
<path d="M263.463 125.763C263.463 125.763 270.315 140.326 269.219 144.723C268.578 147.395 268.868 150.207 270.041 152.691L282.649 152.141L294.435 140.876C294.435 140.876 276.62 128.513 277.716 122.466C278.812 116.419 263.463 125.763 263.463 125.763Z" fill="#ED9DA0"/>
<path d="M295.257 148.844L300.739 182.917C300.739 182.917 300.738 213.692 299.094 214.242C297.449 214.792 290.323 214.242 290.323 214.242V179.62L292.516 149.394L295.257 148.844Z" fill="#6C63FF"/>
<path opacity="0.1" d="M295.257 148.844L300.739 182.917C300.739 182.917 300.738 213.692 299.094 214.242C297.449 214.792 290.323 214.242 290.323 214.242V179.62L292.516 149.394L295.257 148.844Z" fill="black"/>
<path d="M328.147 348.884L332.533 365.921L339.111 360.975L345.141 347.236L337.467 337.893L328.147 348.884Z" fill="#ED9DA0"/>
<path d="M345.141 345.037C345.141 345.037 338.015 350.532 338.015 356.028C338.015 356.028 334.178 362.074 329.792 361.524V373.065C329.792 373.065 316.087 380.208 326.503 381.857C336.918 383.506 344.593 370.316 344.593 370.316C344.593 370.316 354.46 354.379 352.815 352.181C351.171 349.983 345.141 345.037 345.141 345.037Z" fill="#090814"/>
<path d="M295.217 211.644C295.217 211.644 305.674 223.035 300.74 240.619C300.74 240.619 295.258 280.188 312.8 295.025C330.342 309.863 341.853 342.287 341.853 342.287L328.697 354.378C328.697 354.378 314.444 321.954 299.643 309.316C284.842 296.678 283.198 282.388 283.198 282.388V232.379L280.456 211.494L295.217 211.644Z" fill="#090814"/>
<path opacity="0.1" d="M295.217 211.644C295.217 211.644 305.674 223.035 300.74 240.619C300.74 240.619 295.258 280.188 312.8 295.025C330.342 309.863 341.853 342.287 341.853 342.287L328.697 354.378C328.697 354.378 314.444 321.954 299.643 309.316C284.842 296.678 283.198 282.388 283.198 282.388V232.379L280.456 211.494L295.217 211.644Z" fill="#6F6F6F"/>
<path d="M281.552 361.524L276.07 367.569L278.263 372.516L284.842 374.714L296.354 370.318L294.709 363.723L281.552 361.524Z" fill="#ED9DA0"/>
<path d="M296.352 367.569C296.352 367.569 283.668 374.164 280.497 371.416C279.573 370.639 278.816 369.682 278.273 368.604C277.729 367.525 277.41 366.347 277.335 365.141C277.335 365.141 270.984 365.92 266.756 368.666C262.527 371.412 257.324 372.367 254.071 374.711C250.819 377.056 250.9 381.306 260.942 381.855C270.984 382.405 296.352 381.305 296.352 378.558L296.352 367.569Z" fill="#090814"/>
<path d="M260.721 218.639C260.721 218.639 253.595 250.512 266.203 286.786C266.203 286.786 272.233 307.121 274.973 313.164C277.714 319.208 280.456 362.075 279.36 363.724C279.36 363.724 288.131 370.868 295.806 365.922C295.806 365.922 295.257 340.642 296.354 338.444C297.451 336.247 298.547 317.012 291.969 301.074C285.39 285.137 290.874 246.668 290.874 246.668C290.874 246.668 304.025 226.883 294.16 215.341L260.721 218.639Z" fill="#090814"/>
<path d="M268.945 129.61C277.422 129.61 284.294 122.721 284.294 114.223C284.294 105.724 277.422 98.835 268.945 98.835C260.468 98.835 253.596 105.724 253.596 114.223C253.596 122.721 260.468 129.61 268.945 129.61Z" fill="#ED9DA0"/>
<path d="M297.449 214.792C297.449 214.792 293.064 221.387 289.775 218.089C287.456 215.764 272.612 220.815 264.047 223.997C260.461 225.327 257.978 226.332 257.978 226.332C257.978 226.332 257.743 218.716 257.046 209.071C256.246 198.002 254.843 184.252 252.496 176.325C248.111 161.486 259.075 155.441 259.075 155.441C259.075 155.441 268.394 144.451 267.848 142.801C267.301 141.152 292.516 132.909 292.516 132.909C295.256 133.459 297.449 158.189 297.449 158.189C297.449 158.189 292.516 177.973 289.775 190.064C287.034 202.155 297.449 214.792 297.449 214.792Z" fill="#6C63FF"/>
<path d="M250.306 215.341C250.306 215.341 238.246 227.431 232.216 230.729C226.186 234.026 222.897 245.017 227.831 247.215C232.765 249.414 243.728 235.125 243.728 235.125L259.625 221.936L250.306 215.341Z" fill="#ED9DA0"/>
<path d="M252.586 105.03C251.183 105.156 250.382 106.926 250.835 108.263C251.288 109.599 252.588 110.473 253.916 110.94C255.245 111.407 256.665 111.567 257.995 112.03C259.318 112.515 260.545 113.23 261.62 114.141C265.409 117.252 267.653 121.992 268.367 126.85C269.081 131.707 268.367 136.683 267.023 141.405C266.309 143.906 265.144 146.647 262.706 147.535C265.371 146.876 267.976 145.99 270.492 144.888C272.335 144.018 274.066 142.916 275.929 142.089C278.687 140.961 281.581 140.2 284.536 139.826C286.611 139.501 288.805 139.253 290.754 140.04C291.949 140.597 293.049 141.34 294.012 142.243L300.282 147.523C300.391 145.228 300.464 142.931 300.498 140.632C300.529 138.634 300.521 136.579 299.787 134.722C299.061 132.888 297.685 131.393 296.764 129.651C294.485 125.336 295.227 120.143 295.27 115.263C295.314 110.211 294.503 105.061 292.17 100.582C289.837 96.1027 285.852 92.3522 280.992 91.0108C274.442 89.2017 267.537 91.892 261.518 95.0468C260.101 95.7224 258.78 96.5843 257.59 97.6096C256.325 98.9054 255.25 100.375 254.397 101.974L251.415 106.981" fill="#090814"/>
<path opacity="0.1" d="M291.42 163.682C291.42 163.682 281.004 203.25 279.908 205.998C279.119 207.971 269.832 218.468 264.05 223.998C260.464 225.326 257.981 226.331 257.981 226.331C257.981 226.331 257.745 218.712 257.049 209.07C261.511 204.105 266.204 199.403 266.204 199.403C266.204 199.403 271.138 169.177 270.589 157.635C270.041 146.093 281.553 143.347 281.553 143.347C294.708 144.997 291.42 163.682 291.42 163.682Z" fill="black"/>
<path d="M279.907 141.15C279.907 141.15 268.396 143.898 268.944 155.438C269.492 166.979 264.558 197.206 264.558 197.206C264.558 197.206 245.92 215.891 247.565 218.09C249.209 220.288 256.255 224.609 257.94 225.196C259.624 225.783 277.168 206.546 278.263 203.8C279.358 201.053 289.775 161.484 289.775 161.484C289.775 161.484 293.063 142.799 279.907 141.15Z" fill="#6C63FF"/>
</svg>
