<svg width="467" height="396" viewBox="0 0 467 396" fill="none" xmlns="http://www.w3.org/2000/svg">
<g clip-path="url(#clip0_2_1831)">
<path d="M274.244 101.661H260.399C259.693 101.66 259.016 101.38 258.517 100.881C258.018 100.382 257.737 99.7056 257.736 99V85.1613C257.737 84.4557 258.018 83.7793 258.517 83.2804C259.016 82.7815 259.693 82.5008 260.399 82.5H274.244C274.95 82.5008 275.627 82.7815 276.126 83.2804C276.625 83.7793 276.906 84.4557 276.907 85.1613V99C276.906 99.7056 276.625 100.382 276.126 100.881C275.627 101.38 274.95 101.66 274.244 101.661ZM260.399 83.5645C259.975 83.565 259.569 83.7334 259.27 84.0327C258.97 84.3321 258.802 84.7379 258.801 85.1613V99C258.802 99.4233 258.97 99.8292 259.27 100.129C259.569 100.428 259.975 100.596 260.399 100.597H274.244C274.668 100.596 275.074 100.428 275.373 100.129C275.673 99.8292 275.841 99.4233 275.842 99V85.1613C275.841 84.7379 275.673 84.3321 275.373 84.0327C275.074 83.7334 274.668 83.565 274.244 83.5645H260.399Z" fill="#E6E6E6"/>
<path d="M112.893 19.1613H99.0473C98.3414 19.1605 97.6647 18.8798 97.1655 18.3809C96.6663 17.882 96.3856 17.2056 96.3848 16.5V2.66129C96.3856 1.95572 96.6663 1.27928 97.1655 0.780365C97.6647 0.281451 98.3414 0.000807197 99.0473 0H112.893C113.599 0.000807197 114.275 0.281451 114.775 0.780365C115.274 1.27928 115.554 1.95572 115.555 2.66129V16.5C115.554 17.2056 115.274 17.882 114.775 18.3809C114.275 18.8798 113.599 19.1605 112.893 19.1613ZM99.0473 1.06452C98.6238 1.06498 98.2177 1.23336 97.9182 1.53271C97.6187 1.83206 97.4503 2.23794 97.4498 2.66129V16.5C97.4503 16.9233 97.6187 17.3292 97.9182 17.6286C98.2177 17.9279 98.6238 18.0963 99.0473 18.0968H112.893C113.316 18.0963 113.722 17.9279 114.022 17.6286C114.321 17.3292 114.49 16.9233 114.49 16.5V2.66129C114.49 2.23794 114.321 1.83206 114.022 1.53271C113.722 1.23336 113.316 1.06498 112.893 1.06452H99.0473Z" fill="#E6E6E6"/>
<path d="M265.725 94.742H251.879C251.173 94.7412 250.497 94.4605 249.998 93.9616C249.498 93.4627 249.218 92.7863 249.217 92.0807V78.242C249.218 77.5364 249.498 76.86 249.998 76.3611C250.497 75.8621 251.173 75.5815 251.879 75.5807H265.725C266.431 75.5815 267.107 75.8621 267.607 76.3611C268.106 76.86 268.386 77.5364 268.387 78.242V92.0807C268.386 92.7863 268.106 93.4627 267.607 93.9616C267.107 94.4605 266.431 94.7412 265.725 94.742ZM251.879 76.6452C251.456 76.6457 251.05 76.814 250.75 77.1134C250.451 77.4128 250.282 77.8186 250.282 78.242V92.0807C250.282 92.504 250.451 92.9099 250.75 93.2093C251.05 93.5086 251.456 93.677 251.879 93.6775H265.725C266.148 93.677 266.554 93.5086 266.854 93.2093C267.153 92.9099 267.322 92.504 267.322 92.0807V78.242C267.322 77.8186 267.153 77.4128 266.854 77.1134C266.554 76.814 266.148 76.6457 265.725 76.6452H251.879Z" fill="#E6E6E6"/>
<path d="M25.0284 210.242H11.1831C10.4772 210.241 9.8004 209.961 9.30125 209.462C8.80209 208.963 8.52132 208.286 8.52051 207.581V193.742C8.52132 193.036 8.80209 192.36 9.30125 191.861C9.8004 191.362 10.4772 191.081 11.1831 191.081H25.0284C25.7343 191.081 26.4111 191.362 26.9103 191.861C27.4094 192.36 27.6902 193.036 27.691 193.742V207.581C27.6902 208.286 27.4094 208.963 26.9103 209.462C26.4111 209.961 25.7343 210.241 25.0284 210.242ZM11.1831 192.145C10.7595 192.146 10.3535 192.314 10.054 192.613C9.75446 192.913 9.586 193.319 9.58554 193.742V207.581C9.586 208.004 9.75446 208.41 10.054 208.709C10.3535 209.009 10.7595 209.177 11.1831 209.177H25.0284C25.452 209.177 25.8581 209.009 26.1576 208.709C26.4571 208.41 26.6255 208.004 26.626 207.581V193.742C26.6255 193.319 26.4571 192.913 26.1576 192.613C25.8581 192.314 25.452 192.146 25.0284 192.145H11.1831Z" fill="#E6E6E6"/>
<path d="M16.5079 203.323H2.66257C1.95666 203.322 1.27989 203.041 0.78074 202.542C0.281587 202.043 0.000807585 201.367 0 200.661V186.823C0.000807585 186.117 0.281587 185.441 0.78074 184.942C1.27989 184.443 1.95666 184.162 2.66257 184.161H16.5079C17.2138 184.162 17.8906 184.443 18.3898 184.942C18.8889 185.441 19.1697 186.117 19.1705 186.823V200.661C19.1697 201.367 18.8889 202.043 18.3898 202.542C17.8906 203.041 17.2138 203.322 16.5079 203.323ZM2.66257 185.226C2.23902 185.226 1.83294 185.395 1.53345 185.694C1.23395 185.993 1.06549 186.399 1.06503 186.823V200.661C1.06549 201.085 1.23395 201.49 1.53345 201.79C1.83294 202.089 2.23902 202.258 2.66257 202.258H16.5079C16.9315 202.258 17.3376 202.089 17.6371 201.79C17.9365 201.49 18.105 201.085 18.1055 200.661V186.823C18.105 186.399 17.9365 185.993 17.6371 185.694C17.3376 185.395 16.9315 185.226 16.5079 185.226H2.66257Z" fill="#E6E6E6"/>
<path d="M49.2195 45.7947H177.351C183.534 45.7947 189.533 47.8973 194.362 51.7569C199.191 55.6165 202.562 61.0035 203.922 67.0322L268.664 354.062C269.37 357.192 269.383 360.44 268.7 363.576C268.018 366.712 266.658 369.661 264.715 372.216C262.772 374.771 260.294 376.87 257.453 378.366C254.613 379.863 251.479 380.72 248.272 380.878L116.552 387.365C109.499 387.712 102.56 385.482 97.0311 381.092C91.5017 376.702 87.7593 370.45 86.5023 363.505L49.7767 160.572L47.0445 161.352L40.0173 122.889L42.8298 122.186L32.5784 65.5401C32.1393 63.1139 32.2411 60.6207 32.8766 58.2383C33.5121 55.8559 34.6656 53.6429 36.2548 51.7572C37.8441 49.8715 39.83 48.3594 42.071 47.3288C44.3119 46.2982 46.7528 45.7744 49.2195 45.7947Z" fill="#3F3D56"/>
<path d="M160.483 51.9823H175.439C179.735 51.9823 183.901 53.4506 187.246 56.1434C190.591 58.8363 192.915 62.5917 193.83 66.7863L255.974 351.474C256.332 353.113 256.331 354.81 255.973 356.449C255.614 358.088 254.906 359.63 253.897 360.97C252.887 362.311 251.6 363.417 250.124 364.215C248.647 365.013 247.016 365.482 245.341 365.592L114.047 374.193C110.343 374.436 106.68 373.307 103.755 371.021C100.831 368.736 98.8511 365.455 98.1931 361.803L45.1656 67.551C44.8224 65.6464 44.9015 63.6898 45.3975 61.8192C45.8934 59.9486 46.7941 58.2096 48.0358 56.7249C49.2776 55.2402 50.8303 54.046 52.5842 53.2265C54.3382 52.407 56.2507 51.9823 58.1868 51.9823H72.3756C73.7489 51.9823 75.0839 52.4348 76.1739 53.2698C77.2639 54.1047 78.0481 55.2755 78.4051 56.601C78.7203 57.7711 79.4126 58.8047 80.3749 59.5418C81.3371 60.2789 82.5157 60.6784 83.7281 60.6784H151.087C153.461 60.6784 155.748 59.7827 157.49 58.1705C159.232 56.5582 160.301 54.3482 160.483 51.9823Z" fill="white"/>
<path d="M55.3818 100.387H197.817L212.991 168.726L68.6947 171.387L55.3818 100.387Z" fill="#4338CA"/>
<path d="M190.64 229.805H224.173L225.238 236.221H191.705L190.64 229.805Z" fill="#4338CA"/>
<path d="M217.924 197.072L75.708 200.082L75.7222 200.751L217.938 197.741L217.924 197.072Z" fill="#2F2E41"/>
<path d="M222.273 216.805L77.3799 220.15L77.3953 220.819L222.288 217.474L222.273 216.805Z" fill="#2F2E41"/>
<path d="M204.485 298.466H238.018L239.083 304.882H205.55L204.485 298.466Z" fill="#4338CA"/>
<path d="M231.768 265.733L89.5527 268.743L89.5669 269.412L231.783 266.402L231.768 265.733Z" fill="#2F2E41"/>
<path d="M236.118 285.467L91.2256 288.811L91.241 289.48L236.134 286.136L236.118 285.467Z" fill="#2F2E41"/>
<path d="M327.794 389.191L321.449 389.19L318.431 364.729L327.795 364.73L327.794 389.191Z" fill="#A0616A"/>
<path d="M329.413 395.338L308.954 395.337V395.079C308.954 392.968 309.793 390.944 311.287 389.451C312.78 387.958 314.805 387.12 316.917 387.12L329.413 387.12L329.413 395.338Z" fill="#2F2E41"/>
<path d="M406.615 385.038L400.439 386.492L391.891 363.374L401.006 361.228L406.615 385.038Z" fill="#A0616A"/>
<path d="M409.6 390.651L389.686 395.338L389.627 395.086C389.143 393.032 389.495 390.869 390.607 389.074C391.718 387.279 393.497 385.999 395.553 385.515L407.716 382.652L409.6 390.651Z" fill="#2F2E41"/>
<path d="M326.498 286.018C326.51 284.743 326.888 254.659 335.138 243.285L335.26 243.117L364.011 247.081L363.368 253.395C364.633 254.625 374.581 265.014 377.453 289.617L407.97 371.54L393.783 372.829L351.786 283.4L329.561 380.609H315.497L326.498 286.018Z" fill="#2F2E41"/>
<path d="M331.77 244.394L334.58 229.646C334.03 228.938 331.592 225.539 332.135 221.554C332.489 218.954 334.041 216.675 336.751 214.776L344.035 197.787L344.133 197.729C344.624 197.44 356.223 190.736 362.546 197.061C362.704 197.184 378.273 209.536 372.021 226.2L364.303 249.345L331.77 244.394Z" fill="#CCCCCC"/>
<path d="M321.992 264.347C322.749 264.26 323.479 264.009 324.129 263.61C324.779 263.211 325.334 262.674 325.754 262.038C326.174 261.402 326.45 260.681 326.561 259.927C326.672 259.173 326.617 258.403 326.398 257.673L341.442 246.839L332.436 243.415L319.531 254.228C318.328 254.676 317.33 255.55 316.728 256.683C316.126 257.817 315.961 259.132 316.265 260.38C316.568 261.627 317.318 262.72 318.374 263.451C319.429 264.182 320.717 264.501 321.992 264.347Z" fill="#A0616A"/>
<path d="M324.756 246.822L347.723 228.735L340.895 205.417C340.573 204.313 340.482 203.155 340.628 202.014C340.774 200.873 341.153 199.775 341.741 198.787C342.286 197.855 343.02 197.048 343.896 196.416C344.771 195.785 345.769 195.343 346.825 195.119C350.757 194.288 354.326 196.488 357.431 201.661L357.455 201.707C357.968 202.962 369.933 232.526 360.797 238.848C351.86 245.032 331.137 254.034 330.928 254.125L330.685 254.23L324.756 246.822Z" fill="#CCCCCC"/>
<path d="M355.281 190.912C362.965 190.912 369.194 184.686 369.194 177.006C369.194 169.325 362.965 163.099 355.281 163.099C347.596 163.099 341.367 169.325 341.367 177.006C341.367 184.686 347.596 190.912 355.281 190.912Z" fill="#A0616A"/>
<path d="M377.094 172.041C383.892 172.041 389.403 166.533 389.403 159.738C389.403 152.944 383.892 147.436 377.094 147.436C370.296 147.436 364.785 152.944 364.785 159.738C364.785 166.533 370.296 172.041 377.094 172.041Z" fill="#2F2E41"/>
<path d="M387.711 169.926C386.118 171.077 384.272 171.83 382.328 172.121C380.384 172.413 378.399 172.235 376.538 171.603C374.677 170.97 372.994 169.901 371.631 168.486C370.268 167.07 369.264 165.349 368.703 163.466C368.915 165.153 369.475 166.778 370.348 168.239C371.22 169.699 372.386 170.962 373.772 171.95C375.157 172.937 376.733 173.626 378.398 173.974C380.064 174.322 381.784 174.321 383.449 173.971C385.114 173.621 386.688 172.93 388.073 171.941C389.457 170.952 390.622 169.687 391.492 168.226C392.363 166.765 392.921 165.139 393.131 163.451C393.342 161.764 393.2 160.051 392.714 158.421C392.99 160.611 392.671 162.834 391.791 164.859C390.91 166.883 389.501 168.633 387.711 169.926Z" fill="#2F2E41"/>
<path d="M339.135 169.939C341.284 166.094 342.106 164.488 344.876 162.15C347.326 160.082 350.34 159.475 352.771 161.434C355.646 160.192 358.846 159.911 361.894 160.631C364.943 161.352 367.677 163.036 369.692 165.434C371.706 167.831 372.893 170.814 373.077 173.94C373.26 177.065 372.429 180.167 370.709 182.783C368.988 185.399 366.469 187.391 363.526 188.463C360.582 189.534 357.372 189.628 354.371 188.73C351.37 187.832 348.739 185.991 346.868 183.48C344.997 180.968 343.987 177.921 343.987 174.79C343.99 174.24 344.023 173.691 344.087 173.145C341.974 172.848 341.248 170.236 339.135 169.939Z" fill="#2F2E41"/>
<path d="M466.467 396H263.579C263.438 396 263.303 395.944 263.203 395.844C263.103 395.744 263.047 395.609 263.047 395.468C263.047 395.327 263.103 395.191 263.203 395.091C263.303 394.992 263.438 394.935 263.579 394.935H466.467C466.608 394.935 466.744 394.992 466.844 395.091C466.944 395.191 467 395.327 467 395.468C467 395.609 466.944 395.744 466.844 395.844C466.744 395.944 466.608 396 466.467 396Z" fill="#3F3D56"/>
</g>
<defs>
<clipPath id="clip0_2_1831">
<rect width="467" height="396" fill="white"/>
</clipPath>
</defs>
</svg>
